<svg width="54" height="54" viewBox="0 0 54 54" fill="none" xmlns="http://www.w3.org/2000/svg">
<path d="M46.3254 16.9632V15.7554H28.5625L36.5649 7.85028H54.0006V24.7583H28.5625V32.5931L20.9971 25.0225L20.9971 16.9632L28.6722 17.0729V24.0997L36.2379 16.9632H46.3254Z" fill="white"/>
<path d="M20.9971 26.4308L28.6061 34.0895V39.1953L20.9971 31.5366V26.4308Z" fill="white"/>
<path d="M20.9971 35.058L28.6061 42.7167V46.59L20.9971 39.0109V35.058Z" fill="white"/>
<path d="M20.9971 43.6656L28.6061 51.3511V53.2802L20.9971 45.6215V43.6656Z" fill="white"/>
<path d="M12.1602 17.6281L19.945 25.3748V30.4805L12.1602 22.7064V17.6281Z" fill="white"/>
<path d="M12.1602 26.2546L19.8854 34.0013V37.8571L12.1602 30.1718V26.2546Z" fill="white"/>
<path d="M12.1602 34.8267L19.945 42.6882V44.6872L12.1602 36.8185V34.8267Z" fill="white"/>
<path d="M19.9556 24.0447V7.79529H24.9993L32.8067 0H0V7.79529H12.1044V16.3591L19.9556 24.0447Z" fill="white"/>
</svg>
